<svg version="1.1" xmlns="http://www.w3.org/2000/svg" viewBox="0 0 911 1485.596017748182" width="911" height="1485.596017748182">
  <!-- svg-source:excalidraw -->
  
  <defs>
    <style class="style-fonts">
      @font-face {
        font-family: "Virgil";
        src: url("https://excalidraw.com/Virgil.woff2");
      }
      @font-face {
        font-family: "Cascadia";
        src: url("https://excalidraw.com/Cascadia.woff2");
      }
      @font-face {
        font-family: "Assistant";
        src: url("https://excalidraw.com/Assistant-Regular.woff2");
      }
    </style>
    
  </defs>
  <rect x="0" y="0" width="911" height="1485.596017748182" fill="#ffffff"></rect><g stroke-linecap="round" transform="translate(10 10) rotate(0 445.5 732.798008874091)"><path d="M32 0 C302.37 -1.77, 572.94 -3.07, 859 0 M32 0 C326.61 -1.69, 621.55 -1.34, 859 0 M859 0 C882.3 -1.97, 892.46 11.67, 891 32 M859 0 C880.14 1.25, 890.66 12.47, 891 32 M891 32 C890.89 457.83, 891.05 882.87, 891 1433.6 M891 32 C892.16 533.98, 892.18 1035.71, 891 1433.6 M891 1433.6 C890.09 1453.31, 880.72 1463.7, 859 1465.6 M891 1433.6 C891.65 1455.4, 879.62 1465.98, 859 1465.6 M859 1465.6 C561.26 1464.52, 263.91 1465.37, 32 1465.6 M859 1465.6 C600.25 1463.41, 341.38 1463.42, 32 1465.6 M32 1465.6 C10.17 1466.53, 1.42 1453.84, 0 1433.6 M32 1465.6 C10.98 1466.19, -0.36 1456.99, 0 1433.6 M0 1433.6 C-1.74 1003.88, -2.29 575.52, 0 32 M0 1433.6 C-3.32 1076.68, -3.62 720.64, 0 32 M0 32 C0.19 12.3, 9.9 -0.44, 32 0 M0 32 C1.8 10.08, 12.29 -0.3, 32 0" stroke="#1e1e1e" stroke-width="2" fill="none"></path></g><g transform="translate(427.1145839691162 15) rotate(0 28.38541603088379 12.5)"><text x="28.38541603088379" y="0" font-family="Virgil, Segoe UI Emoji" font-size="20px" fill="#1e1e1e" text-anchor="middle" style="white-space: pre;" direction="ltr" dominant-baseline="text-before-edge">Figure</text></g><g stroke-linecap="round" transform="translate(42 129) rotate(0 411.5 190.99999999999994)"><path d="M32 0 C304.48 1.92, 576.65 2.39, 791 0 M32 0 C320.93 0.07, 609.57 0.18, 791 0 M791 0 C811.54 -1.41, 821.39 12.62, 823 32 M791 0 C812.99 0.88, 822.47 12.11, 823 32 M823 32 C821.09 124.67, 821.64 217.4, 823 350 M823 32 C823.27 155.72, 823.46 279.64, 823 350 M823 350 C823.82 371.75, 813.03 381.93, 791 382 M823 350 C822.85 371.82, 813.91 382.03, 791 382 M791 382 C611.39 380.8, 430.12 380.94, 32 382 M791 382 C514.71 382.03, 238.37 382.54, 32 382 M32 382 C9.71 383.7, -1.27 371.69, 0 350 M32 382 C8.47 384.12, -1.55 370.05, 0 350 M0 350 C-0.89 251.23, -1.68 151.35, 0 32 M0 350 C2.11 260.45, 0.9 172.06, 0 32 M0 32 C-0.95 11.81, 10 0.39, 32 0 M0 32 C1.74 9.33, 9.36 -1.62, 32 0" stroke="#1971c2" stroke-width="2" fill="none"></path></g><g transform="translate(418.1458320617676 134) rotate(0 35.35416793823242 12.5)"><text x="35.35416793823242" y="0" font-family="Virgil, Segoe UI Emoji" font-size="20px" fill="#1971c2" text-anchor="middle" style="white-space: pre;" direction="ltr" dominant-baseline="text-before-edge">Plot2D</text></g><g stroke-linecap="round" transform="translate(446 229) rotate(0 77.5 131)"><path d="M32 0 C50.41 -1.09, 70.06 -0.65, 123 0 M32 0 C57.36 0.98, 83.98 0.71, 123 0 M123 0 C144.41 1.57, 155.14 10.21, 155 32 M123 0 C146.05 1.7, 157.23 9.66, 155 32 M155 32 C156.18 74.01, 154.94 117.27, 155 230 M155 32 C154.99 104.28, 154.65 178.43, 155 230 M155 230 C156.95 251.38, 142.5 263.68, 123 262 M155 230 C157.01 249.66, 146.46 261.91, 123 262 M123 262 C101.12 262.48, 77.84 262.56, 32 262 M123 262 C102.78 262.13, 83.08 262.4, 32 262 M32 262 C11.96 263.46, -1.15 251.84, 0 230 M32 262 C11.38 263.06, 2.17 249.85, 0 230 M0 230 C-0.07 157.46, 0.42 82.28, 0 32 M0 230 C-2.1 151.95, -0.82 72.75, 0 32 M0 32 C-1.77 10.16, 10.89 1.69, 32 0 M0 32 C0.38 10.6, 9.17 -1.98, 32 0" stroke="#f08c00" stroke-width="2" fill="none"></path></g><g transform="translate(505.1875 234) rotate(0 18.3125 12.5)"><text x="18.3125" y="0" font-family="Virgil, Segoe UI Emoji" font-size="20px" fill="#f08c00" text-anchor="middle" style="white-space: pre;" direction="ltr" dominant-baseline="text-before-edge">Line</text></g><g stroke-linecap="round" transform="translate(50 58) rotate(0 408.5 20.5)"><path d="M10.25 0 C193.91 0.49, 378.5 1.24, 806.75 0 M10.25 0 C326.06 2.42, 642.12 2.4, 806.75 0 M806.75 0 C813.64 -1.83, 818.45 1.44, 817 10.25 M806.75 0 C814.1 1.15, 814.94 4.66, 817 10.25 M817 10.25 C818.64 15.71, 818.23 19.8, 817 30.75 M817 10.25 C816.39 19.23, 817.84 25.99, 817 30.75 M817 30.75 C817.54 37.32, 813.59 40.28, 806.75 41 M817 30.75 C817.95 35.76, 812.05 42.99, 806.75 41 M806.75 41 C589.75 39.1, 371.42 39.41, 10.25 41 M806.75 41 C594.95 43.52, 383.12 43.65, 10.25 41 M10.25 41 C4.79 42.82, 0.85 36.95, 0 30.75 M10.25 41 C2.56 40.43, 0.03 37.82, 0 30.75 M0 30.75 C-1.4 24.56, -1.92 15.43, 0 10.25 M0 30.75 C-0.72 25.23, -0.44 19.95, 0 10.25 M0 10.25 C-1 2.66, 4.76 0.29, 10.25 0 M0 10.25 C-0.23 3.08, 2.03 -0.46, 10.25 0" stroke="#1e1e1e" stroke-width="2" fill="none"></path></g><g transform="translate(434.53125 66) rotate(0 23.96875 12.5)"><text x="23.96875" y="0" font-family="Virgil, Segoe UI Emoji" font-size="20px" fill="#1e1e1e" text-anchor="middle" style="white-space: pre;" direction="ltr" dominant-baseline="text-before-edge">Title</text></g><g stroke-linecap="round" transform="translate(464 320) rotate(0 62.5 21.5)"><path d="M10.75 0 C31.93 1.81, 54.06 0.47, 114.25 0 M10.75 0 C38.33 -0.36, 66.26 -1.35, 114.25 0 M114.25 0 C120.13 1.77, 126.49 5.05, 125 10.75 M114.25 0 C120.46 1.68, 123.1 1.66, 125 10.75 M125 10.75 C125.33 15.55, 124.33 20.66, 125 32.25 M125 10.75 C125.46 19.84, 125.45 27, 125 32.25 M125 32.25 C125.98 39.35, 120.25 42.18, 114.25 43 M125 32.25 C126.83 39.35, 123.09 40.78, 114.25 43 M114.25 43 C79.06 45.02, 42.98 44.6, 10.75 43 M114.25 43 C84.22 41.2, 55.11 41.57, 10.75 43 M10.75 43 C3.85 42.59, 1.35 41.21, 0 32.25 M10.75 43 C4.6 43.96, -0.66 40.63, 0 32.25 M0 32.25 C-0.82 24.46, 0.04 20.66, 0 10.75 M0 32.25 C0.24 26.7, 0 23.13, 0 10.75 M0 10.75 C-1.32 2.89, 4.92 -0.41, 10.75 0 M0 10.75 C2.02 3.42, 3.16 -2.05, 10.75 0" stroke="#1971c2" stroke-width="2" fill="none"></path></g><g transform="translate(476.75 329) rotate(0 49.75 12.5)"><text x="49.75" y="0" font-family="Virgil, Segoe UI Emoji" font-size="20px" fill="#1971c2" text-anchor="middle" style="white-space: pre;" direction="ltr" dominant-baseline="text-before-edge">Datapoint</text></g><g stroke-linecap="round" transform="translate(462.5 379.5) rotate(0 62.5 21.5)"><path d="M10.75 0 C52.8 -0.71, 93.22 -1.15, 114.25 0 M10.75 0 C52.37 0.57, 93.26 0.54, 114.25 0 M114.25 0 C122.13 -0.32, 124.19 4.01, 125 10.75 M114.25 0 C120.65 0.51, 124.74 5.01, 125 10.75 M125 10.75 C125.33 15.79, 125.61 21.58, 125 32.25 M125 10.75 C125.24 16.73, 124.57 23.01, 125 32.25 M125 32.25 C126.21 38.91, 119.85 41.02, 114.25 43 M125 32.25 C122.71 40.98, 119.32 43.33, 114.25 43 M114.25 43 C76.24 41.28, 38.19 43.78, 10.75 43 M114.25 43 C84.14 43.46, 52.45 43.13, 10.75 43 M10.75 43 C4.45 43.62, 0.56 41.21, 0 32.25 M10.75 43 C4.52 44.61, -2 40.24, 0 32.25 M0 32.25 C-1.64 25.63, -0.45 15.95, 0 10.75 M0 32.25 C-0.95 24.38, 0.79 18.05, 0 10.75 M0 10.75 C-1.02 3.04, 4.61 1.82, 10.75 0 M0 10.75 C1.91 1.38, 1.99 1.47, 10.75 0" stroke="#1971c2" stroke-width="2" fill="none"></path></g><g transform="translate(475.25 388.5) rotate(0 49.75 12.5)"><text x="49.75" y="0" font-family="Virgil, Segoe UI Emoji" font-size="20px" fill="#1971c2" text-anchor="middle" style="white-space: pre;" direction="ltr" dominant-baseline="text-before-edge">Datapoint</text></g><g transform="translate(520.916666507721 435) rotate(0 5.583333492279053 22.5)"><text x="5.583333492279053" y="0" font-family="Virgil, Segoe UI Emoji" font-size="36px" fill="#1971c2" text-anchor="middle" style="white-space: pre;" direction="ltr" dominant-baseline="text-before-edge">⋮</text></g><g stroke-linecap="round" transform="translate(462.5 267.5) rotate(0 62.5 20)"><path d="M10 0 C49.96 -1.59, 92.49 -0.34, 115 0 M10 0 C38.76 1.07, 67.82 0.15, 115 0 M115 0 C121.04 -1.61, 126.67 4.06, 125 10 M115 0 C122.26 1.24, 123.71 4.04, 125 10 M125 10 C125.94 16.34, 126.39 23.91, 125 30 M125 10 C125.47 18.14, 125.24 26.4, 125 30 M125 30 C123.75 37.32, 122.85 39.89, 115 40 M125 30 C127.13 35.14, 121.94 38.62, 115 40 M115 40 C81.56 40.36, 51.3 38.57, 10 40 M115 40 C79.5 41.43, 43.54 40.81, 10 40 M10 40 C5.08 41.25, 1.57 38.06, 0 30 M10 40 C4.64 39.03, 1.96 36.31, 0 30 M0 30 C-0.73 25.03, 0.35 16.6, 0 10 M0 30 C-0.08 21.64, 0.68 14.07, 0 10 M0 10 C-0.76 2.91, 3.95 1.8, 10 0 M0 10 C1 1.61, 3.59 1.09, 10 0" stroke="#1e1e1e" stroke-width="2" fill="none"></path></g><g transform="translate(499.1666660308838 275) rotate(0 25.83333396911621 12.5)"><text x="25.83333396911621" y="0" font-family="Virgil, Segoe UI Emoji" font-size="20px" fill="#1e1e1e" text-anchor="middle" style="white-space: pre;" direction="ltr" dominant-baseline="text-before-edge">Label</text></g><g stroke-linecap="round" transform="translate(627.5 228) rotate(0 77.5 131)"><path d="M32 0 C59.31 1.32, 87.38 1.41, 123 0 M32 0 C67.88 0.37, 101.49 -0.3, 123 0 M123 0 C143.92 -1.25, 153.48 11.85, 155 32 M123 0 C144.57 -0.88, 155.34 11.44, 155 32 M155 32 C154.38 110.53, 155.04 188.61, 155 230 M155 32 C156.92 107.99, 157.14 182.19, 155 230 M155 230 C155.45 252.26, 142.66 263.58, 123 262 M155 230 C154.64 253.42, 145.38 263.6, 123 262 M123 262 C102.38 260.34, 83.21 261.3, 32 262 M123 262 C86.91 262.35, 51.76 261.89, 32 262 M32 262 C9.84 261.78, 0.07 252.66, 0 230 M32 262 C11.1 262.84, 0.13 250.22, 0 230 M0 230 C0.51 174.69, -0.86 124.2, 0 32 M0 230 C-0.49 186.87, 1.06 144.84, 0 32 M0 32 C-1.18 9.98, 8.87 -1.14, 32 0 M0 32 C-1.76 9.09, 8.37 -2.1, 32 0" stroke="#f08c00" stroke-width="2" fill="none"></path></g><g transform="translate(686.6875 233) rotate(0 18.3125 12.5)"><text x="18.3125" y="0" font-family="Virgil, Segoe UI Emoji" font-size="20px" fill="#f08c00" text-anchor="middle" style="white-space: pre;" direction="ltr" dominant-baseline="text-before-edge">Line</text></g><g stroke-linecap="round" transform="translate(645.5 319) rotate(0 62.5 21.5)"><path d="M10.75 0 C52.64 -2.05, 91.74 0.74, 114.25 0 M10.75 0 C48.24 -0.59, 85.38 0.62, 114.25 0 M114.25 0 C121.62 -0.77, 125.29 4.25, 125 10.75 M114.25 0 C123.58 0.31, 125.5 2.56, 125 10.75 M125 10.75 C126.57 19.56, 124.96 25.14, 125 32.25 M125 10.75 C125.31 19.37, 124.25 27.85, 125 32.25 M125 32.25 C124.68 41.23, 122.33 44.39, 114.25 43 M125 32.25 C123 38.09, 122.09 41.59, 114.25 43 M114.25 43 C95.06 41.12, 73.69 42.08, 10.75 43 M114.25 43 C86.65 42.03, 59.91 42.8, 10.75 43 M10.75 43 C3.96 43.73, 0.11 38.45, 0 32.25 M10.75 43 C2.88 42.73, -0.96 39.74, 0 32.25 M0 32.25 C-1.59 27.64, 0.68 22.06, 0 10.75 M0 32.25 C-0.76 26.91, -1.07 21.69, 0 10.75 M0 10.75 C-1.53 2.21, 1.59 -1.82, 10.75 0 M0 10.75 C-0.54 2.79, 2.31 1.56, 10.75 0" stroke="#1971c2" stroke-width="2" fill="none"></path></g><g transform="translate(658.25 328) rotate(0 49.75 12.5)"><text x="49.75" y="0" font-family="Virgil, Segoe UI Emoji" font-size="20px" fill="#1971c2" text-anchor="middle" style="white-space: pre;" direction="ltr" dominant-baseline="text-before-edge">Datapoint</text></g><g stroke-linecap="round" transform="translate(644 378.5) rotate(0 62.5 21.5)"><path d="M10.75 0 C37.43 -2.03, 61.48 -1.29, 114.25 0 M10.75 0 C35.41 -0.99, 60.02 -0.28, 114.25 0 M114.25 0 C123.29 0.27, 125.43 2.69, 125 10.75 M114.25 0 C122.04 -0.27, 125.74 5.42, 125 10.75 M125 10.75 C126.59 19.87, 124.58 27.92, 125 32.25 M125 10.75 C124.66 19.1, 125.28 26.33, 125 32.25 M125 32.25 C123.26 38.27, 122 41.77, 114.25 43 M125 32.25 C122.78 38.26, 120.31 45.17, 114.25 43 M114.25 43 C89.6 43.82, 64.77 41.96, 10.75 43 M114.25 43 C84.54 44.05, 54.51 43.2, 10.75 43 M10.75 43 C2.97 42.77, -0.83 39.7, 0 32.25 M10.75 43 C1.3 41.75, 0.99 37.45, 0 32.25 M0 32.25 C-1.41 27.65, -0.57 18.79, 0 10.75 M0 32.25 C-0.57 25.85, -0.8 19.91, 0 10.75 M0 10.75 C-0.47 2.89, 2.48 1.36, 10.75 0 M0 10.75 C2.04 4.08, 4.1 0.77, 10.75 0" stroke="#1971c2" stroke-width="2" fill="none"></path></g><g transform="translate(656.75 387.5) rotate(0 49.75 12.5)"><text x="49.75" y="0" font-family="Virgil, Segoe UI Emoji" font-size="20px" fill="#1971c2" text-anchor="middle" style="white-space: pre;" direction="ltr" dominant-baseline="text-before-edge">Datapoint</text></g><g transform="translate(702.416666507721 434) rotate(0 5.583333492279053 22.5)"><text x="5.583333492279053" y="0" font-family="Virgil, Segoe UI Emoji" font-size="36px" fill="#1971c2" text-anchor="middle" style="white-space: pre;" direction="ltr" dominant-baseline="text-before-edge">⋮</text></g><g stroke-linecap="round" transform="translate(644 266.5) rotate(0 62.5 20)"><path d="M10 0 C40.5 1, 67.88 1.09, 115 0 M10 0 C45.23 -0.59, 80.29 -0.26, 115 0 M115 0 C122.31 1.6, 126.78 3.32, 125 10 M115 0 C122.03 1.83, 125.88 2.85, 125 10 M125 10 C126.68 16.14, 126.91 23.82, 125 30 M125 10 C125.12 16.77, 123.86 24.27, 125 30 M125 30 C124.03 38.55, 120.29 41.58, 115 40 M125 30 C124.52 35.81, 122.86 38.08, 115 40 M115 40 C89.15 40.42, 61.38 40.15, 10 40 M115 40 C88.18 40.02, 61.21 39.33, 10 40 M10 40 C4.19 38.29, -0.29 37.23, 0 30 M10 40 C1.55 38.44, 1.77 36.08, 0 30 M0 30 C-1.08 23.65, -1.3 18.37, 0 10 M0 30 C-0.51 26.5, 0.93 21.86, 0 10 M0 10 C0.45 4.01, 1.89 1.48, 10 0 M0 10 C-0.18 4.22, 4.37 -1.99, 10 0" stroke="#1e1e1e" stroke-width="2" fill="none"></path></g><g transform="translate(680.6666660308838 274) rotate(0 25.83333396911621 12.5)"><text x="25.83333396911621" y="0" font-family="Virgil, Segoe UI Emoji" font-size="20px" fill="#1e1e1e" text-anchor="middle" style="white-space: pre;" direction="ltr" dominant-baseline="text-before-edge">Label</text></g><g transform="translate(808.1145830154419 335) rotate(0 15.385416984558105 22.5)"><text x="15.385416984558105" y="0" font-family="Virgil, Segoe UI Emoji" font-size="36px" fill="#f08c00" text-anchor="middle" style="white-space: pre;" direction="ltr" dominant-baseline="text-before-edge">⋯</text></g><g stroke-linecap="round" transform="translate(71 227) rotate(0 83.5 125.5)"><path d="M32 0 C62.4 -2.14, 93.25 -0.26, 135 0 M32 0 C62.05 0.79, 92.58 0.63, 135 0 M135 0 C155.7 1.83, 167.64 12.55, 167 32 M135 0 C158.04 -0.02, 166.81 10.66, 167 32 M167 32 C169.23 89.06, 170.61 150.32, 167 219 M167 32 C165.23 101.41, 165.27 170.9, 167 219 M167 219 C165.01 241.46, 158.05 251.34, 135 251 M167 219 C168.28 242.16, 156.33 250.69, 135 251 M135 251 C99.16 249.05, 63.04 252.18, 32 251 M135 251 C109.83 250.74, 83.95 250.34, 32 251 M32 251 C10.95 251.12, -0.37 238.83, 0 219 M32 251 C11.88 248.97, 1.14 238.55, 0 219 M0 219 C0.01 171.73, -0.11 124.84, 0 32 M0 219 C0.96 179.2, -0.92 140.54, 0 32 M0 32 C-1.02 11.26, 10.24 -0.41, 32 0 M0 32 C1.37 11.07, 10.25 -0.57, 32 0" stroke="#2f9e44" stroke-width="2" fill="none"></path></g><g transform="translate(113.1875 232) rotate(0 41.3125 25)"><text x="41.3125" y="0" font-family="Virgil, Segoe UI Emoji" font-size="20px" fill="#2f9e44" text-anchor="middle" style="white-space: pre;" direction="ltr" dominant-baseline="text-before-edge">Axis</text><text x="41.3125" y="25" font-family="Virgil, Segoe UI Emoji" font-size="20px" fill="#2f9e44" text-anchor="middle" style="white-space: pre;" direction="ltr" dominant-baseline="text-before-edge">(x_axis)</text></g><g stroke-linecap="round" transform="translate(90 313) rotate(0 66 19.5)"><path d="M9.75 0 C49.66 -1.83, 88.83 0.51, 122.25 0 M9.75 0 C52.67 -0.3, 95.98 0, 122.25 0 M122.25 0 C128.05 -0.64, 130.15 2.78, 132 9.75 M122.25 0 C130.5 1.22, 131.96 2.04, 132 9.75 M132 9.75 C132.61 12.91, 133.05 19.27, 132 29.25 M132 9.75 C131.2 16.81, 132.25 25.16, 132 29.25 M132 29.25 C133.07 34.86, 129.57 40.06, 122.25 39 M132 29.25 C131.32 35.07, 127.31 37.44, 122.25 39 M122.25 39 C89.43 38.6, 53.1 38.32, 9.75 39 M122.25 39 C78.91 39.33, 37.48 39.43, 9.75 39 M9.75 39 C1.48 38.49, -1.19 34, 0 29.25 M9.75 39 C2.48 38.15, -0.2 37.82, 0 29.25 M0 29.25 C-1.11 23.42, 0.04 17.59, 0 9.75 M0 29.25 C-0.06 23.98, -0.98 19.58, 0 9.75 M0 9.75 C1.14 3.21, 3.65 -1.51, 9.75 0 M0 9.75 C2.02 5.24, 1.05 1.1, 9.75 0" stroke="#1e1e1e" stroke-width="2" fill="none"></path></g><g transform="translate(130.1666660308838 320) rotate(0 25.83333396911621 12.5)"><text x="25.83333396911621" y="0" font-family="Virgil, Segoe UI Emoji" font-size="20px" fill="#1e1e1e" text-anchor="middle" style="white-space: pre;" direction="ltr" dominant-baseline="text-before-edge">Label</text></g><g stroke-linecap="round" transform="translate(89 391.5) rotate(0 66 19.5)"><path d="M9.75 0 C35.99 -0.3, 57.79 -1.9, 122.25 0 M9.75 0 C37.04 0.12, 65.09 0.61, 122.25 0 M122.25 0 C128.06 1.09, 131.19 3.69, 132 9.75 M122.25 0 C127.8 -0.89, 129.83 2, 132 9.75 M132 9.75 C131.34 17.5, 132.86 22.22, 132 29.25 M132 9.75 C132.32 15.05, 132.38 21.59, 132 29.25 M132 29.25 C131.54 37.75, 129.32 39.43, 122.25 39 M132 29.25 C132.92 34.39, 130.96 39.72, 122.25 39 M122.25 39 C90.77 38.83, 60.65 36.9, 9.75 39 M122.25 39 C96.29 37.89, 71.51 38.42, 9.75 39 M9.75 39 C4.84 40.96, 0.64 34.07, 0 29.25 M9.75 39 C2.37 38.42, 0.83 35.97, 0 29.25 M0 29.25 C0.91 24.61, 1.94 19.77, 0 9.75 M0 29.25 C-0.23 23.27, 0.66 19.68, 0 9.75 M0 9.75 C-0.52 4.28, 2.06 -1.38, 9.75 0 M0 9.75 C1.85 3.2, 2.75 0.3, 9.75 0" stroke="#1e1e1e" stroke-width="2" fill="none"></path></g><g transform="translate(122.73958206176758 398.5) rotate(0 32.26041793823242 12.5)"><text x="32.26041793823242" y="0" font-family="Virgil, Segoe UI Emoji" font-size="20px" fill="#1e1e1e" text-anchor="middle" style="white-space: pre;" direction="ltr" dominant-baseline="text-before-edge">Scaling</text></g><g stroke-linecap="round" transform="translate(255.5 226.5) rotate(0 83.5 125.5)"><path d="M32 0 C53.86 -2.44, 75.57 -2.19, 135 0 M32 0 C60.88 0.8, 88.44 0.53, 135 0 M135 0 C157.16 -0.52, 167.8 9.48, 167 32 M135 0 C155.33 -0.68, 165.04 11.2, 167 32 M167 32 C166.77 102.45, 166.25 173.61, 167 219 M167 32 C166.56 79.71, 166.94 127.61, 167 219 M167 219 C167.08 241.84, 155.16 249.82, 135 251 M167 219 C169.17 238.24, 154.45 252.16, 135 251 M135 251 C113.61 250.55, 87.88 249.07, 32 251 M135 251 C96.5 250.41, 59.02 250.82, 32 251 M32 251 C10.87 252.2, 0.53 240.11, 0 219 M32 251 C12.59 251.27, -2.17 239.78, 0 219 M0 219 C0.09 147.96, -1.51 76.84, 0 32 M0 219 C-0.23 158.2, -1.83 95.73, 0 32 M0 32 C1.53 9.1, 12.1 0.24, 32 0 M0 32 C-0.64 11.35, 8.54 1.39, 32 0" stroke="#2f9e44" stroke-width="2" fill="none"></path></g><g transform="translate(298.625 231.5) rotate(0 40.375 25)"><text x="40.375" y="0" font-family="Virgil, Segoe UI Emoji" font-size="20px" fill="#2f9e44" text-anchor="middle" style="white-space: pre;" direction="ltr" dominant-baseline="text-before-edge">Axis</text><text x="40.375" y="25" font-family="Virgil, Segoe UI Emoji" font-size="20px" fill="#2f9e44" text-anchor="middle" style="white-space: pre;" direction="ltr" dominant-baseline="text-before-edge">(y_axis)</text></g><g stroke-linecap="round" transform="translate(274.5 312.5) rotate(0 66 19.5)"><path d="M9.75 0 C32.93 0.01, 56.95 2.6, 122.25 0 M9.75 0 C51.31 -0.7, 92.45 -1.03, 122.25 0 M122.25 0 C127.88 -0.59, 130.29 3.72, 132 9.75 M122.25 0 C130.64 -1.23, 129.83 4.14, 132 9.75 M132 9.75 C131.18 14.1, 133.95 19.62, 132 29.25 M132 9.75 C132.13 15.68, 131.51 19.57, 132 29.25 M132 29.25 C133.88 33.93, 127.12 40.01, 122.25 39 M132 29.25 C130.25 33.75, 126.78 40.94, 122.25 39 M122.25 39 C87.36 38.36, 47.95 36.8, 9.75 39 M122.25 39 C84.37 40.48, 46.54 39.77, 9.75 39 M9.75 39 C4.93 39.24, -1.88 35.27, 0 29.25 M9.75 39 C5.17 38.82, -1.98 35.68, 0 29.25 M0 29.25 C0.72 23.59, -1.35 17.38, 0 9.75 M0 29.25 C0.94 21.36, 0.89 15.11, 0 9.75 M0 9.75 C-0.56 3.84, 1.4 1.21, 9.75 0 M0 9.75 C2.03 4.18, 4.19 -1.85, 9.75 0" stroke="#1e1e1e" stroke-width="2" fill="none"></path></g><g transform="translate(314.6666660308838 319.5) rotate(0 25.83333396911621 12.5)"><text x="25.83333396911621" y="0" font-family="Virgil, Segoe UI Emoji" font-size="20px" fill="#1e1e1e" text-anchor="middle" style="white-space: pre;" direction="ltr" dominant-baseline="text-before-edge">Label</text></g><g stroke-linecap="round" transform="translate(273.5 391) rotate(0 66 19.5)"><path d="M9.75 0 C40.01 -0.16, 68.42 -0.15, 122.25 0 M9.75 0 C40.17 0.37, 70.6 0.9, 122.25 0 M122.25 0 C130.39 -1.07, 130.11 4.02, 132 9.75 M122.25 0 C127.6 0.29, 130.5 2.26, 132 9.75 M132 9.75 C131.54 15.95, 131.27 20.47, 132 29.25 M132 9.75 C132.8 16.18, 131.09 24.87, 132 29.25 M132 29.25 C130.48 34.01, 127.03 40.68, 122.25 39 M132 29.25 C132.5 34.63, 127.55 40.52, 122.25 39 M122.25 39 C89.54 36.92, 56.9 38.3, 9.75 39 M122.25 39 C82.61 38.99, 40.35 38.63, 9.75 39 M9.75 39 C4.92 38.84, -1.72 35.69, 0 29.25 M9.75 39 C4.06 37.09, 1.53 36.41, 0 29.25 M0 29.25 C1.43 20.59, -0.57 17.29, 0 9.75 M0 29.25 C-0.41 25.21, -1.04 21.19, 0 9.75 M0 9.75 C1.76 4.06, 4.07 -1.6, 9.75 0 M0 9.75 C1.09 3.81, 2.87 0.44, 9.75 0" stroke="#1e1e1e" stroke-width="2" fill="none"></path></g><g transform="translate(307.2395820617676 398) rotate(0 32.26041793823242 12.5)"><text x="32.26041793823242" y="0" font-family="Virgil, Segoe UI Emoji" font-size="20px" fill="#1e1e1e" text-anchor="middle" style="white-space: pre;" direction="ltr" dominant-baseline="text-before-edge">Scaling</text></g><g stroke-linecap="round" transform="translate(41.5 536.5) rotate(0 411.5 199.7292171583291)"><path d="M32 0 C212.74 0.73, 393.26 1.46, 791 0 M32 0 C319.64 2.48, 607.44 2.16, 791 0 M791 0 C813.32 1.44, 822.23 11.33, 823 32 M791 0 C812.57 0.36, 820.79 10.22, 823 32 M823 32 C823.05 150.59, 822.26 269.01, 823 367.46 M823 32 C823.07 145.93, 823.22 259.14, 823 367.46 M823 367.46 C822.25 389.33, 813.63 399.66, 791 399.46 M823 367.46 C824.72 390.9, 811.21 400.34, 791 399.46 M791 399.46 C607.77 398.39, 423.73 397.93, 32 399.46 M791 399.46 C555.76 396.77, 321.17 396.5, 32 399.46 M32 399.46 C10.01 398.63, 1.01 388.73, 0 367.46 M32 399.46 C12.5 398.61, -1.71 388.04, 0 367.46 M0 367.46 C0.14 287.95, -1.3 208.31, 0 32 M0 367.46 C1.27 267.83, 0.27 168.9, 0 32 M0 32 C-1.01 12.28, 10.21 0.85, 32 0 M0 32 C-1.32 11.25, 12.8 0.46, 32 0" stroke="#1971c2" stroke-width="2" fill="none"></path></g><g transform="translate(418.3020820617676 541.5) rotate(0 34.69791793823242 12.5)"><text x="34.69791793823242" y="0" font-family="Virgil, Segoe UI Emoji" font-size="20px" fill="#1971c2" text-anchor="middle" style="white-space: pre;" direction="ltr" dominant-baseline="text-before-edge">PiePlot</text></g><g stroke-linecap="round" transform="translate(72.5 171.5) rotate(0 385.5 20.5)"><path d="M10.25 0 C305.54 0.08, 601.18 0.13, 760.75 0 M10.25 0 C182.7 2.1, 354.7 2.45, 760.75 0 M760.75 0 C765.83 -1.16, 770.18 2.68, 771 10.25 M760.75 0 C766.64 2.16, 772.32 2.47, 771 10.25 M771 10.25 C772.28 13.43, 773.09 18.42, 771 30.75 M771 10.25 C770.43 15.54, 770.65 19.79, 771 30.75 M771 30.75 C770.22 35.92, 769.27 39.16, 760.75 41 M771 30.75 C771.34 37.56, 768.1 42.96, 760.75 41 M760.75 41 C506.3 38.19, 251.03 38.67, 10.25 41 M760.75 41 C527.07 42.85, 293.96 42.89, 10.25 41 M10.25 41 C3.55 39.04, -1.48 36.66, 0 30.75 M10.25 41 C5.48 40.49, 0.32 35.76, 0 30.75 M0 30.75 C1.31 23.23, -1.06 18.12, 0 10.25 M0 30.75 C-0.78 25, 0.57 19.84, 0 10.25 M0 10.25 C1.34 1.5, 4.52 -0.48, 10.25 0 M0 10.25 C0.36 2.69, 4.03 1.39, 10.25 0" stroke="#1e1e1e" stroke-width="2" fill="none"></path></g><g transform="translate(434.03125 179.5) rotate(0 23.96875 12.5)"><text x="23.96875" y="0" font-family="Virgil, Segoe UI Emoji" font-size="20px" fill="#1e1e1e" text-anchor="middle" style="white-space: pre;" direction="ltr" dominant-baseline="text-before-edge">Title</text></g><g stroke-linecap="round" transform="translate(70.5 581.5) rotate(0 385.5 20.5)"><path d="M10.25 0 C242.57 -1.95, 475.84 -0.39, 760.75 0 M10.25 0 C181.44 1.82, 353.07 1.7, 760.75 0 M760.75 0 C767.3 0.39, 770.81 4.95, 771 10.25 M760.75 0 C766.86 0.82, 770.93 1.52, 771 10.25 M771 10.25 C769.35 17.83, 772.42 23.61, 771 30.75 M771 10.25 C771.62 14.92, 770.91 21.42, 771 30.75 M771 30.75 C769.15 35.63, 767.02 39.44, 760.75 41 M771 30.75 C771.4 39.45, 768.53 41.78, 760.75 41 M760.75 41 C519.3 39.69, 280.19 39.54, 10.25 41 M760.75 41 C553.89 40.82, 347.26 40.54, 10.25 41 M10.25 41 C3.92 40.79, -0.4 36.81, 0 30.75 M10.25 41 C2.37 42.44, 1.12 39.86, 0 30.75 M0 30.75 C-1.13 24.53, -1.68 14.81, 0 10.25 M0 30.75 C0.2 22.62, 0.73 14.37, 0 10.25 M0 10.25 C-1.48 2.37, 1.8 1.4, 10.25 0 M0 10.25 C-0.06 2.75, 2.11 -1.7, 10.25 0" stroke="#1e1e1e" stroke-width="2" fill="none"></path></g><g transform="translate(432.03125 589.5) rotate(0 23.96875 12.5)"><text x="23.96875" y="0" font-family="Virgil, Segoe UI Emoji" font-size="20px" fill="#1e1e1e" text-anchor="middle" style="white-space: pre;" direction="ltr" dominant-baseline="text-before-edge">Title</text></g><g stroke-linecap="round" transform="translate(180.62878563984123 647.0313951120779) rotate(0 77.5 131)"><path d="M32 0 C64.57 0.31, 98.01 1.57, 123 0 M32 0 C61.38 1.07, 89.2 0.09, 123 0 M123 0 C146.1 -1.55, 155.47 9.37, 155 32 M123 0 C142.28 2.08, 153.45 10.09, 155 32 M155 32 C155.17 86.03, 155.56 141.97, 155 230 M155 32 C154.09 99.21, 154.59 167.47, 155 230 M155 230 C155.63 251.42, 146.19 263.63, 123 262 M155 230 C154.37 253.14, 143.84 263.22, 123 262 M123 262 C87.49 260.8, 55.26 261.38, 32 262 M123 262 C94.86 263.24, 67.36 262.49, 32 262 M32 262 C10.76 262.9, 0.99 250.12, 0 230 M32 262 C9.8 262.31, 2.22 250.8, 0 230 M0 230 C-0.05 166.71, 3.68 101.31, 0 32 M0 230 C-0.36 158.07, -0.11 85.88, 0 32 M0 32 C-1.22 9.42, 10.2 1.43, 32 0 M0 32 C0.53 8.84, 10.53 0.62, 32 0" stroke="#f08c00" stroke-width="2" fill="none"></path></g><g transform="translate(236.74336960895744 652.0313951120779) rotate(0 21.38541603088379 12.5)"><text x="21.38541603088379" y="0" font-family="Virgil, Segoe UI Emoji" font-size="20px" fill="#f08c00" text-anchor="middle" style="white-space: pre;" direction="ltr" dominant-baseline="text-before-edge">Slice</text></g><g stroke-linecap="round" transform="translate(196.8624821838539 693.6799668977737) rotate(0 62.5 20)"><path d="M10 0 C43.06 0.71, 79.75 -1.18, 115 0 M10 0 C35.43 -0.22, 61.33 1.04, 115 0 M115 0 C122.94 1.22, 123.28 2.58, 125 10 M115 0 C121.03 2.17, 122.73 4.88, 125 10 M125 10 C123.34 17.51, 123.96 25.27, 125 30 M125 10 C124.07 17.42, 125.89 24.24, 125 30 M125 30 C124.6 36.59, 120.66 40.45, 115 40 M125 30 C123.4 37.72, 122.94 39.08, 115 40 M115 40 C73.23 41.91, 32.11 40.04, 10 40 M115 40 C88.9 39.48, 61.84 40.16, 10 40 M10 40 C4.13 41.93, -0.85 36.92, 0 30 M10 40 C2.66 39.91, 1.49 35.33, 0 30 M0 30 C-0.2 25.57, -0.27 19.89, 0 10 M0 30 C-0.53 21.97, -0.64 16.23, 0 10 M0 10 C-0.76 3.73, 1.82 1.03, 10 0 M0 10 C-1.31 4, 4.16 -0.76, 10 0" stroke="#1e1e1e" stroke-width="2" fill="none"></path></g><g transform="translate(233.5291482147377 701.1799668977737) rotate(0 25.83333396911621 12.5)"><text x="25.83333396911621" y="0" font-family="Virgil, Segoe UI Emoji" font-size="20px" fill="#1e1e1e" text-anchor="middle" style="white-space: pre;" direction="ltr" dominant-baseline="text-before-edge">Label</text></g><g stroke-linecap="round" transform="translate(196.862482183854 749.2404353286847) rotate(0 62.5 20)"><path d="M10 0 C39.62 -0.66, 67.21 -1.17, 115 0 M10 0 C43.4 0.99, 75.05 0.2, 115 0 M115 0 C121.1 1.11, 126.75 4.76, 125 10 M115 0 C119.47 -1.38, 126.51 1.08, 125 10 M125 10 C123.77 12.88, 126.26 18.88, 125 30 M125 10 C125.44 17.04, 125.15 23.85, 125 30 M125 30 C126.46 35.05, 122.61 39.48, 115 40 M125 30 C122.71 34.81, 121.88 39.07, 115 40 M115 40 C79.22 40.15, 45.31 38.23, 10 40 M115 40 C88.6 40.36, 64.39 40.03, 10 40 M10 40 C4.64 40.25, -1.33 38.1, 0 30 M10 40 C1.32 39.33, 0.66 38.09, 0 30 M0 30 C-1.32 25.49, 0.28 22.16, 0 10 M0 30 C0.76 24.84, -0.45 20.25, 0 10 M0 10 C0.59 4.82, 2.1 -1.7, 10 0 M0 10 C-1.23 4.56, 4.53 -0.76, 10 0" stroke="#1e1e1e" stroke-width="2" fill="none"></path></g><g transform="translate(239.9041482147378 756.7404353286847) rotate(0 19.45833396911621 12.5)"><text x="19.45833396911621" y="0" font-family="Virgil, Segoe UI Emoji" font-size="20px" fill="#1e1e1e" text-anchor="middle" style="white-space: pre;" direction="ltr" dominant-baseline="text-before-edge">Size</text></g><g stroke-linecap="round" transform="translate(198.84678462781494 802.8166013156344) rotate(0 62.5 20)"><path d="M10 0 C49.68 2.12, 86.73 -0.57, 115 0 M10 0 C43.72 0.33, 77.64 0.53, 115 0 M115 0 C121.66 -1.35, 125.47 2.59, 125 10 M115 0 C121.41 0.35, 122.88 2.2, 125 10 M125 10 C125.93 17.53, 126.34 26.27, 125 30 M125 10 C124.99 16.01, 124.5 22.54, 125 30 M125 30 C126.68 34.68, 120.44 38.38, 115 40 M125 30 C124.71 38.44, 119.66 38.12, 115 40 M115 40 C79.21 39.53, 44.38 38.29, 10 40 M115 40 C90.74 41.29, 64.32 40.69, 10 40 M10 40 C4.99 39.76, -1.08 36.88, 0 30 M10 40 C1.91 39.83, -0.15 38.49, 0 30 M0 30 C0.57 25.31, -2.15 19.01, 0 10 M0 30 C0.58 23.21, -1.12 18.37, 0 10 M0 10 C-0.72 3.39, 5 -1.9, 10 0 M0 10 C-1.34 3.22, 1.19 -1.42, 10 0" stroke="#1e1e1e" stroke-width="2" fill="none"></path></g><g transform="translate(236.89886859693115 810.3166013156344) rotate(0 24.44791603088379 12.5)"><text x="24.44791603088379" y="0" font-family="Virgil, Segoe UI Emoji" font-size="20px" fill="#1e1e1e" text-anchor="middle" style="white-space: pre;" direction="ltr" dominant-baseline="text-before-edge">Color</text></g><g stroke-linecap="round" transform="translate(197.8546334058343 853.9886414948692) rotate(0 62.5 20)"><path d="M10 0 C40.05 1.76, 73.39 -1.08, 115 0 M10 0 C50.88 0.3, 94.23 -0.49, 115 0 M115 0 C123.35 -0.37, 126.81 3.87, 125 10 M115 0 C122.18 -2.05, 126.13 3.44, 125 10 M125 10 C126 18.09, 124.33 23.75, 125 30 M125 10 C125.41 18.52, 124.91 24.96, 125 30 M125 30 C123.32 34.72, 123.44 41.81, 115 40 M125 30 C126.33 38.52, 121.37 38.79, 115 40 M115 40 C94.39 39.55, 71.35 38.99, 10 40 M115 40 C77.67 40.95, 41.73 41.2, 10 40 M10 40 C3.26 41.14, 0.4 34.88, 0 30 M10 40 C4.48 39.01, -0.83 35.58, 0 30 M0 30 C-0.06 21.61, 0.32 16.69, 0 10 M0 30 C-0.82 23.36, -0.19 18.11, 0 10 M0 10 C-1.18 1.74, 2.74 0.28, 10 0 M0 10 C1.44 1.25, 1.67 0.64, 10 0" stroke="#1e1e1e" stroke-width="2" fill="none"></path></g><g transform="translate(226.8233834058343 861.4886414948692) rotate(0 33.53125 12.5)"><text x="33.53125" y="0" font-family="Virgil, Segoe UI Emoji" font-size="20px" fill="#1e1e1e" text-anchor="middle" style="white-space: pre;" direction="ltr" dominant-baseline="text-before-edge">Offset</text></g><g stroke-linecap="round" transform="translate(366.40260947223646 647.4398765541724) rotate(0 77.5 130.99999999999994)"><path d="M32 0 C55.32 -0.18, 78.55 -0.95, 123 0 M32 0 C51.74 -0.76, 70.64 -0.05, 123 0 M123 0 C142.67 0.25, 153.99 11.11, 155 32 M123 0 C146.16 1.61, 155.63 12.72, 155 32 M155 32 C156.08 92.19, 154.99 150.14, 155 230 M155 32 C155.73 90.14, 156.24 150.74, 155 230 M155 230 C153.4 252.42, 143.88 262.44, 123 262 M155 230 C157 250.08, 146.35 260.53, 123 262 M123 262 C88.87 263.4, 58.04 263.93, 32 262 M123 262 C90.83 261.27, 60.38 261.35, 32 262 M32 262 C11.39 260.8, -0.06 251.48, 0 230 M32 262 C12.48 261.98, -0.94 250.98, 0 230 M0 230 C-0.4 186.67, 0.83 145.14, 0 32 M0 230 C0.22 183.42, -0.23 136.46, 0 32 M0 32 C0.9 9.02, 10.35 -0.98, 32 0 M0 32 C-1.52 8.89, 9.06 0.93, 32 0" stroke="#f08c00" stroke-width="2" fill="none"></path></g><g transform="translate(422.5171934413527 652.4398765541724) rotate(0 21.38541603088379 12.5)"><text x="21.38541603088379" y="0" font-family="Virgil, Segoe UI Emoji" font-size="20px" fill="#f08c00" text-anchor="middle" style="white-space: pre;" direction="ltr" dominant-baseline="text-before-edge">Slice</text></g><g stroke-linecap="round" transform="translate(382.63630601624914 694.0884483398683) rotate(0 62.5 20)"><path d="M10 0 C34.44 1.88, 64.43 2.56, 115 0 M10 0 C41.63 -0.72, 74.42 -0.62, 115 0 M115 0 C123.26 1.4, 125.55 5.12, 125 10 M115 0 C121.61 0.44, 123.83 4.14, 125 10 M125 10 C124.93 18.07, 124.18 24.49, 125 30 M125 10 C124.29 14.6, 124.87 18.33, 125 30 M125 30 C126.74 35.58, 123.42 38.72, 115 40 M125 30 C126.4 37.87, 121.63 38.5, 115 40 M115 40 C77 41.26, 35.89 39.75, 10 40 M115 40 C85.65 39.31, 55.56 39.98, 10 40 M10 40 C4.91 39.98, -0.82 36.36, 0 30 M10 40 C1.37 38.28, 2.04 34.5, 0 30 M0 30 C-1.2 24.69, 1.25 19.82, 0 10 M0 30 C0.52 22.6, -0.09 16.36, 0 10 M0 10 C-1.32 1.79, 1.94 0.81, 10 0 M0 10 C-0.85 2.15, 4.39 -0.95, 10 0" stroke="#1e1e1e" stroke-width="2" fill="none"></path></g><g transform="translate(419.3029720471329 701.5884483398683) rotate(0 25.83333396911621 12.5)"><text x="25.83333396911621" y="0" font-family="Virgil, Segoe UI Emoji" font-size="20px" fill="#1e1e1e" text-anchor="middle" style="white-space: pre;" direction="ltr" dominant-baseline="text-before-edge">Label</text></g><g stroke-linecap="round" transform="translate(382.63630601624936 749.6489167707792) rotate(0 62.5 20)"><path d="M10 0 C46.73 0.73, 84.71 -2.52, 115 0 M10 0 C43.59 0.47, 75.85 0.66, 115 0 M115 0 C121.62 0.38, 123.98 4.03, 125 10 M115 0 C123.15 -0.44, 125.38 3.3, 125 10 M125 10 C122.97 17.72, 125.92 21.96, 125 30 M125 10 C125.82 16.55, 125.83 23.54, 125 30 M125 30 C126.21 37.71, 121.63 38.7, 115 40 M125 30 C126.63 37.47, 123.9 41.07, 115 40 M115 40 C81.88 40.25, 49.26 40.06, 10 40 M115 40 C90.56 40.07, 64.14 39.92, 10 40 M10 40 C1.63 38.5, 1.78 34.78, 0 30 M10 40 C2.4 39.24, 0.22 35.21, 0 30 M0 30 C0.46 23.42, 0.28 19.14, 0 10 M0 30 C-0.63 24.87, -0.67 21.7, 0 10 M0 10 C-0.74 2.3, 4.26 -0.82, 10 0 M0 10 C1.93 5.24, 1.98 1.43, 10 0" stroke="#1e1e1e" stroke-width="2" fill="none"></path></g><g transform="translate(425.67797204713315 757.1489167707792) rotate(0 19.45833396911621 12.5)"><text x="19.45833396911621" y="0" font-family="Virgil, Segoe UI Emoji" font-size="20px" fill="#1e1e1e" text-anchor="middle" style="white-space: pre;" direction="ltr" dominant-baseline="text-before-edge">Size</text></g><g stroke-linecap="round" transform="translate(384.6206084602102 803.225082757729) rotate(0 62.5 20)"><path d="M10 0 C50.11 -0.14, 90.17 2.46, 115 0 M10 0 C48.81 -0.75, 87.17 -0.59, 115 0 M115 0 C122.95 -0.38, 125.33 3.3, 125 10 M115 0 C122.57 -0.89, 124.9 1.09, 125 10 M125 10 C126.19 16.49, 125.54 25.61, 125 30 M125 10 C125.78 15.44, 125.16 19.18, 125 30 M125 30 C126.42 37.36, 123.61 40.93, 115 40 M125 30 C125.28 35.24, 120.21 39.61, 115 40 M115 40 C77.52 40.32, 42.58 41.95, 10 40 M115 40 C82.73 39.09, 53.05 38.9, 10 40 M10 40 C2.52 39.34, 0.19 35.4, 0 30 M10 40 C3.2 41.36, 0.23 37.33, 0 30 M0 30 C-1.69 24.39, -1.02 18.09, 0 10 M0 30 C-0.23 25.03, 0.6 20.68, 0 10 M0 10 C1.67 4.99, 2.16 1.24, 10 0 M0 10 C-2.01 3.32, 3.1 -0.22, 10 0" stroke="#1e1e1e" stroke-width="2" fill="none"></path></g><g transform="translate(422.6726924293264 810.725082757729) rotate(0 24.44791603088379 12.5)"><text x="24.44791603088379" y="0" font-family="Virgil, Segoe UI Emoji" font-size="20px" fill="#1e1e1e" text-anchor="middle" style="white-space: pre;" direction="ltr" dominant-baseline="text-before-edge">Color</text></g><g stroke-linecap="round" transform="translate(383.62845723822966 854.3971229369636) rotate(0 62.5 20)"><path d="M10 0 C37.58 -0.29, 64.15 -0.89, 115 0 M10 0 C44.13 -0.56, 77.14 -0.38, 115 0 M115 0 C122.45 -0.78, 124.91 1.39, 125 10 M115 0 C122.74 1.15, 123.16 4.59, 125 10 M125 10 C123.96 17.3, 123.76 22.32, 125 30 M125 10 C125.7 17.4, 125.97 24.56, 125 30 M125 30 C125.24 35.43, 120.4 39.66, 115 40 M125 30 C126.05 36.46, 122.49 38.63, 115 40 M115 40 C83.78 40.01, 52.29 39.12, 10 40 M115 40 C90.96 38.68, 67.83 38.38, 10 40 M10 40 C3.21 41.19, 0.2 37.24, 0 30 M10 40 C2.53 40.45, 1.03 34.77, 0 30 M0 30 C-1.45 22.92, 0.91 17.89, 0 10 M0 30 C0.75 25.86, -0.68 20.69, 0 10 M0 10 C-1.75 3.32, 3.13 -0.19, 10 0 M0 10 C-1.56 2.3, 1.8 1.57, 10 0" stroke="#1e1e1e" stroke-width="2" fill="none"></path></g><g transform="translate(412.59720723822966 861.8971229369636) rotate(0 33.53125 12.5)"><text x="33.53125" y="0" font-family="Virgil, Segoe UI Emoji" font-size="20px" fill="#1e1e1e" text-anchor="middle" style="white-space: pre;" direction="ltr" dominant-baseline="text-before-edge">Offset</text></g><g transform="translate(595.1985977804115 748.0026667783279) rotate(0 15.385416984558105 22.5)"><text x="15.385416984558105" y="0" font-family="Virgil, Segoe UI Emoji" font-size="36px" fill="#f08c00" text-anchor="middle" style="white-space: pre;" direction="ltr" dominant-baseline="text-before-edge">⋯</text></g><g stroke-linecap="round" transform="translate(45.30057535798369 962.6731823023167) rotate(0 411.5 199.7292171583291)"><path d="M32 0 C241.64 1.56, 450.22 1.5, 791 0 M32 0 C186.96 -1.04, 341.84 -0.78, 791 0 M791 0 C812.01 1.54, 824.38 8.91, 823 32 M791 0 C810.85 1.76, 825.22 8.88, 823 32 M823 32 C824.32 108.42, 822.42 183.65, 823 367.46 M823 32 C822.39 154.88, 823.43 279.06, 823 367.46 M823 367.46 C822.63 389.79, 811.92 398.73, 791 399.46 M823 367.46 C824.76 391.04, 813.08 400.75, 791 399.46 M791 399.46 C545.62 395.94, 300.14 397.11, 32 399.46 M791 399.46 C605.51 401.15, 419.26 401.07, 32 399.46 M32 399.46 C9.5 400.86, 0.36 389.37, 0 367.46 M32 399.46 C10.73 398.87, 0.42 387.49, 0 367.46 M0 367.46 C-3.14 281.09, -3.25 191.63, 0 32 M0 367.46 C-1.15 279.78, -0.73 191.51, 0 32 M0 32 C0.78 11.21, 12.32 -0.06, 32 0 M0 32 C0.89 10.43, 8.68 1.28, 32 0" stroke="#1971c2" stroke-width="2" fill="none"></path></g><g transform="translate(418.13390741975127 967.6731823023167) rotate(0 38.66666793823242 12.5)"><text x="38.66666793823242" y="0" font-family="Virgil, Segoe UI Emoji" font-size="20px" fill="#1971c2" text-anchor="middle" style="white-space: pre;" direction="ltr" dominant-baseline="text-before-edge">BarPlot</text></g><g stroke-linecap="round" transform="translate(74.30057535798369 1007.6731823023167) rotate(0 385.5 20.5)"><path d="M10.25 0 C263.27 -1.47, 518.05 -1.03, 760.75 0 M10.25 0 C199.15 -0.25, 388.46 -0.91, 760.75 0 M760.75 0 C766.29 1.53, 772.93 1.86, 771 10.25 M760.75 0 C765.91 0.71, 769.42 4.48, 771 10.25 M771 10.25 C772.15 16.55, 769.78 21.3, 771 30.75 M771 10.25 C770.96 15.9, 770.94 20.2, 771 30.75 M771 30.75 C772.53 39.54, 768.23 42.12, 760.75 41 M771 30.75 C771.53 37.94, 765.49 40.06, 760.75 41 M760.75 41 C605.7 43.19, 452.02 43.14, 10.25 41 M760.75 41 C559.11 39.72, 358.01 39.56, 10.25 41 M10.25 41 C3.47 40.49, 0.37 36.45, 0 30.75 M10.25 41 C2.52 43.07, -0.73 35.7, 0 30.75 M0 30.75 C-0.56 23.22, 0.44 12.85, 0 10.25 M0 30.75 C0.47 23.38, 0.9 15.43, 0 10.25 M0 10.25 C0.78 3.21, 1.69 1.11, 10.25 0 M0 10.25 C0.96 1.29, 2.4 -1.14, 10.25 0" stroke="#1e1e1e" stroke-width="2" fill="none"></path></g><g transform="translate(435.8318253579837 1015.6731823023167) rotate(0 23.96875 12.5)"><text x="23.96875" y="0" font-family="Virgil, Segoe UI Emoji" font-size="20px" fill="#1e1e1e" text-anchor="middle" style="white-space: pre;" direction="ltr" dominant-baseline="text-before-edge">Title</text></g><g stroke-linecap="round" transform="translate(352.88746013375703 1066.9070783812758) rotate(0 77.5 131)"><path d="M32 0 C52.28 -0.76, 74.86 -0.22, 123 0 M32 0 C65.67 1.57, 101.6 0.02, 123 0 M123 0 C142.88 0.62, 153.63 11.59, 155 32 M123 0 C144.56 -2.18, 153.4 12.21, 155 32 M155 32 C153.01 92.33, 155.89 149.42, 155 230 M155 32 C155.36 102.24, 154.92 171.09, 155 230 M155 230 C155.46 251.64, 142.51 261.18, 123 262 M155 230 C152.84 249.19, 145.53 260.73, 123 262 M123 262 C88.03 261.73, 53.28 261.48, 32 262 M123 262 C89.35 262.01, 55.83 261.7, 32 262 M32 262 C9.89 263.8, -0.63 249.69, 0 230 M32 262 C12.69 259.94, -1.21 250.48, 0 230 M0 230 C1.2 165.67, 0.94 103.6, 0 32 M0 230 C-1.25 165.08, -2.5 100.93, 0 32 M0 32 C0.83 8.82, 9.78 -0.99, 32 0 M0 32 C1.27 8.68, 12.38 1.87, 32 0" stroke="#f08c00" stroke-width="2" fill="none"></path></g><g transform="translate(412.1478761646408 1071.9070783812758) rotate(0 18.23958396911621 12.5)"><text x="18.23958396911621" y="0" font-family="Virgil, Segoe UI Emoji" font-size="20px" fill="#f08c00" text-anchor="middle" style="white-space: pre;" direction="ltr" dominant-baseline="text-before-edge">Bar</text></g><g stroke-linecap="round" transform="translate(369.1211566777697 1113.5556501669716) rotate(0 62.5 20)"><path d="M10 0 C38.52 1.55, 62.19 -1.12, 115 0 M10 0 C48.82 1.13, 88.4 1.28, 115 0 M115 0 C121.86 -1.9, 123.61 4.68, 125 10 M115 0 C121.61 -1.18, 123.11 2.22, 125 10 M125 10 C126.19 17.02, 124.47 26.41, 125 30 M125 10 C125.29 18.11, 124.15 25.51, 125 30 M125 30 C123.12 34.8, 122.71 38.9, 115 40 M125 30 C126.78 38.04, 123.31 39.27, 115 40 M115 40 C89.74 39.75, 62.26 39.44, 10 40 M115 40 C85.8 40.31, 57.06 38.58, 10 40 M10 40 C5.1 38.21, -1.05 35.92, 0 30 M10 40 C3.82 40.3, -2.28 38.34, 0 30 M0 30 C0.43 26.39, -0.18 20.25, 0 10 M0 30 C0.59 23.28, -0.27 17.92, 0 10 M0 10 C1.1 1.6, 4.83 1.62, 10 0 M0 10 C-1.09 1.59, 1.06 -1.58, 10 0" stroke="#1e1e1e" stroke-width="2" fill="none"></path></g><g transform="translate(405.7878227086535 1121.0556501669716) rotate(0 25.83333396911621 12.5)"><text x="25.83333396911621" y="0" font-family="Virgil, Segoe UI Emoji" font-size="20px" fill="#1e1e1e" text-anchor="middle" style="white-space: pre;" direction="ltr" dominant-baseline="text-before-edge">Label</text></g><g stroke-linecap="round" transform="translate(369.12115667776993 1169.1161185978826) rotate(0 62.5 20)"><path d="M10 0 C50.3 2.61, 85.97 -0.77, 115 0 M10 0 C44.84 -1.44, 78.79 0.19, 115 0 M115 0 C121.62 -1.03, 123.35 2.36, 125 10 M115 0 C123.32 2.2, 124.58 4.48, 125 10 M125 10 C126.89 16.24, 126.05 21.63, 125 30 M125 10 C123.88 15.38, 125.34 22.07, 125 30 M125 30 C126.55 37.86, 123.1 39.37, 115 40 M125 30 C123.94 35.47, 120.32 41.61, 115 40 M115 40 C81.08 40.4, 47.05 39.25, 10 40 M115 40 C74.92 38.24, 32.55 38.77, 10 40 M10 40 C3.76 40.26, -1.98 38.13, 0 30 M10 40 C2.49 41.38, 0.9 37.3, 0 30 M0 30 C-0.2 20.62, 1.12 15.53, 0 10 M0 30 C0.64 24.98, 0.83 22.51, 0 10 M0 10 C-0.94 1.82, 1.36 -1.37, 10 0 M0 10 C1.68 4.26, 4.07 1.6, 10 0" stroke="#1e1e1e" stroke-width="2" fill="none"></path></g><g transform="translate(402.86074064688614 1176.6161185978826) rotate(0 28.76041603088379 12.5)"><text x="28.76041603088379" y="0" font-family="Virgil, Segoe UI Emoji" font-size="20px" fill="#1e1e1e" text-anchor="middle" style="white-space: pre;" direction="ltr" dominant-baseline="text-before-edge">Height</text></g><g stroke-linecap="round" transform="translate(371.10545912173075 1222.6922845848326) rotate(0 62.5 20)"><path d="M10 0 C52.27 -0.61, 94.23 0.95, 115 0 M10 0 C31.51 -1.22, 52.24 -1.19, 115 0 M115 0 C123.1 1.91, 124.63 4.33, 125 10 M115 0 C121.19 -0.83, 126.76 5.59, 125 10 M125 10 C125.42 14.83, 124.3 21.42, 125 30 M125 10 C125.88 14.73, 125.82 17.95, 125 30 M125 30 C124.08 35.63, 120.5 41.4, 115 40 M125 30 C125.42 37.33, 121.73 39.41, 115 40 M115 40 C83.38 38.96, 46.5 41.35, 10 40 M115 40 C93.11 39.74, 69.81 40.34, 10 40 M10 40 C2.6 41.2, 0.78 37.21, 0 30 M10 40 C5.23 39.93, 0.89 36.43, 0 30 M0 30 C-1.96 24.84, -1.1 22.56, 0 10 M0 30 C-0.62 24.97, -1.14 20.77, 0 10 M0 10 C1.46 4.14, 3.98 1.39, 10 0 M0 10 C0.48 2.13, 4.01 -1.2, 10 0" stroke="#1e1e1e" stroke-width="2" fill="none"></path></g><g transform="translate(409.15754309084696 1230.1922845848326) rotate(0 24.44791603088379 12.5)"><text x="24.44791603088379" y="0" font-family="Virgil, Segoe UI Emoji" font-size="20px" fill="#1e1e1e" text-anchor="middle" style="white-space: pre;" direction="ltr" dominant-baseline="text-before-edge">Color</text></g><g stroke-linecap="round" transform="translate(370.1133078997502 1273.864324764067) rotate(0 62.5 20)"><path d="M10 0 C32.39 -1.49, 59.91 -0.15, 115 0 M10 0 C36.83 1.46, 62.04 1.01, 115 0 M115 0 C121.26 -0.73, 126.53 5.29, 125 10 M115 0 C122.41 1.29, 125.53 3.69, 125 10 M125 10 C123.05 15.22, 123.81 19.9, 125 30 M125 10 C124.68 16.68, 124.56 25.1, 125 30 M125 30 C125.36 37.24, 121.72 39.49, 115 40 M125 30 C125.42 35.36, 120.77 42.07, 115 40 M115 40 C85.04 39.87, 57.92 41.35, 10 40 M115 40 C81.76 41.36, 49.66 41.04, 10 40 M10 40 C4.98 39.94, 0.78 36.46, 0 30 M10 40 C1.34 41.28, 0.96 34.54, 0 30 M0 30 C-1.63 26.38, 1.72 18.83, 0 10 M0 30 C0.93 25.92, 0.52 21.73, 0 10 M0 10 C0.42 2.29, 3.93 -1.04, 10 0 M0 10 C1.51 1.4, 3.83 -2.21, 10 0" stroke="#1e1e1e" stroke-width="2" fill="none"></path></g><g transform="translate(399.0820578997502 1281.364324764067) rotate(0 33.53125 12.5)"><text x="33.53125" y="0" font-family="Virgil, Segoe UI Emoji" font-size="20px" fill="#1e1e1e" text-anchor="middle" style="white-space: pre;" direction="ltr" dominant-baseline="text-before-edge">Offset</text></g><g stroke-linecap="round" transform="translate(538.6612839661523 1067.3155598233704) rotate(0 77.5 131)"><path d="M32 0 C51.96 -1.62, 72.99 1.46, 123 0 M32 0 C67.78 -0.82, 104.74 0.53, 123 0 M123 0 C144.98 1.12, 155.46 10.98, 155 32 M123 0 C142.24 -0.94, 152.84 8.52, 155 32 M155 32 C155.1 103.17, 153.27 170.56, 155 230 M155 32 C154.02 81.43, 153.87 130.02, 155 230 M155 230 C155.37 250.2, 143.55 263.8, 123 262 M155 230 C154.27 249.45, 146.36 259.94, 123 262 M123 262 C100.75 260.21, 79.43 261.46, 32 262 M123 262 C91.08 262.22, 57.91 262.14, 32 262 M32 262 C8.94 263.11, 0.83 249.48, 0 230 M32 262 C9.65 260.86, 1.27 249.34, 0 230 M0 230 C-3.12 153.84, -2.98 83.1, 0 32 M0 230 C-0.43 162.07, -0.34 94.66, 0 32 M0 32 C1.31 8.99, 11.1 -1.92, 32 0 M0 32 C-1.3 10.65, 8.4 -0.95, 32 0" stroke="#f08c00" stroke-width="2" fill="none"></path></g><g transform="translate(597.9216999970361 1072.3155598233704) rotate(0 18.23958396911621 12.5)"><text x="18.23958396911621" y="0" font-family="Virgil, Segoe UI Emoji" font-size="20px" fill="#f08c00" text-anchor="middle" style="white-space: pre;" direction="ltr" dominant-baseline="text-before-edge">Bar</text></g><g stroke-linecap="round" transform="translate(554.8949805101649 1113.9641316090663) rotate(0 62.5 20)"><path d="M10 0 C34.77 -1.12, 56.72 -1.17, 115 0 M10 0 C38.01 -0.47, 65.61 -0.87, 115 0 M115 0 C119.85 -0.82, 123.12 1.47, 125 10 M115 0 C122.87 -1.27, 126.78 4.71, 125 10 M125 10 C123.9 16.26, 126.34 25.22, 125 30 M125 10 C125.19 16.01, 124.62 24.05, 125 30 M125 30 C124.37 35.02, 123.43 38.21, 115 40 M125 30 C123.79 35.81, 122.15 40.3, 115 40 M115 40 C95.11 40.4, 73.38 41.26, 10 40 M115 40 C82.94 40.45, 53.03 38.97, 10 40 M10 40 C2.45 39.01, 1.1 34.94, 0 30 M10 40 C5.05 41.87, -1.09 34.92, 0 30 M0 30 C0.95 26.62, 1.53 22.37, 0 10 M0 30 C0.6 24.2, 0.16 19.12, 0 10 M0 10 C-1.13 3.32, 1.36 -0.83, 10 0 M0 10 C1.29 4.17, 1.69 0.4, 10 0" stroke="#1e1e1e" stroke-width="2" fill="none"></path></g><g transform="translate(591.5616465410487 1121.4641316090663) rotate(0 25.83333396911621 12.5)"><text x="25.83333396911621" y="0" font-family="Virgil, Segoe UI Emoji" font-size="20px" fill="#1e1e1e" text-anchor="middle" style="white-space: pre;" direction="ltr" dominant-baseline="text-before-edge">Label</text></g><g stroke-linecap="round" transform="translate(554.8949805101654 1169.5246000399773) rotate(0 62.5 20)"><path d="M10 0 C38.84 1.75, 71.1 0.87, 115 0 M10 0 C46.47 -0.57, 83.81 -1.1, 115 0 M115 0 C122.71 -1.1, 126.55 4.53, 125 10 M115 0 C123.31 -0.73, 123.94 2.14, 125 10 M125 10 C125.72 14.89, 124.63 20.03, 125 30 M125 10 C124.6 14.05, 125.8 18.84, 125 30 M125 30 C123.95 35.92, 122.09 40.26, 115 40 M125 30 C122.72 38.34, 120.82 41.38, 115 40 M115 40 C79.33 41.64, 43.57 39.14, 10 40 M115 40 C77.22 38.53, 40.88 38.16, 10 40 M10 40 C4.83 41.62, -0.94 35.15, 0 30 M10 40 C1.06 38.42, 1.68 37.6, 0 30 M0 30 C-1.18 23.95, -1.18 18.03, 0 10 M0 30 C-0.61 25.67, -1.03 20.94, 0 10 M0 10 C1.12 4.06, 1.9 0.35, 10 0 M0 10 C1.6 4.47, 1.66 1.64, 10 0" stroke="#1e1e1e" stroke-width="2" fill="none"></path></g><g transform="translate(588.6345644792816 1177.0246000399773) rotate(0 28.76041603088379 12.5)"><text x="28.76041603088379" y="0" font-family="Virgil, Segoe UI Emoji" font-size="20px" fill="#1e1e1e" text-anchor="middle" style="white-space: pre;" direction="ltr" dominant-baseline="text-before-edge">Height</text></g><g stroke-linecap="round" transform="translate(556.879282954126 1223.100766026927) rotate(0 62.5 20)"><path d="M10 0 C50.67 0.12, 89.4 -2.16, 115 0 M10 0 C37.74 0.43, 65.21 1.58, 115 0 M115 0 C123.1 -0.63, 124.08 2.3, 125 10 M115 0 C120.32 1.61, 125.42 4, 125 10 M125 10 C123.82 15.27, 126.75 21.47, 125 30 M125 10 C124.65 13.99, 125.39 18.85, 125 30 M125 30 C123.02 38.13, 120.93 41.2, 115 40 M125 30 C125.9 37.3, 123.57 39.93, 115 40 M115 40 C80.54 39.92, 42.01 38.21, 10 40 M115 40 C89.45 39.9, 61.93 38.33, 10 40 M10 40 C1.36 38.63, 1.46 37.48, 0 30 M10 40 C4.07 41.6, 0.48 35.47, 0 30 M0 30 C-1.57 23.84, -1.82 15.69, 0 10 M0 30 C0.76 24.37, -0.52 18.2, 0 10 M0 10 C1.39 4.32, 1.88 1.42, 10 0 M0 10 C-1.92 4.4, 5.36 -0.14, 10 0" stroke="#1e1e1e" stroke-width="2" fill="none"></path></g><g transform="translate(594.9313669232422 1230.600766026927) rotate(0 24.44791603088379 12.5)"><text x="24.44791603088379" y="0" font-family="Virgil, Segoe UI Emoji" font-size="20px" fill="#1e1e1e" text-anchor="middle" style="white-space: pre;" direction="ltr" dominant-baseline="text-before-edge">Color</text></g><g stroke-linecap="round" transform="translate(555.8871317321452 1274.2728062061615) rotate(0 62.5 20)"><path d="M10 0 C43.09 -0.92, 75.93 2, 115 0 M10 0 C36.42 -0.95, 60.94 -1.15, 115 0 M115 0 C120.5 1.4, 125.36 3.91, 125 10 M115 0 C121.73 -0.59, 125.42 2.03, 125 10 M125 10 C123.54 16.98, 123.39 19.39, 125 30 M125 10 C124.05 15.99, 124.67 21.11, 125 30 M125 30 C125.78 37.21, 123.32 39.94, 115 40 M125 30 C125.89 36.43, 119.68 41.28, 115 40 M115 40 C78.14 40.64, 41.53 41.03, 10 40 M115 40 C74 38.52, 35.7 39.61, 10 40 M10 40 C3.98 41.39, 0.42 35.62, 0 30 M10 40 C4.01 38.8, 1.51 34.74, 0 30 M0 30 C0.18 21.6, -0.64 18.26, 0 10 M0 30 C0.84 23.77, -0.58 17.26, 0 10 M0 10 C-1.67 4.26, 5.1 -0.12, 10 0 M0 10 C-0.09 3.76, 2.59 -1.28, 10 0" stroke="#1e1e1e" stroke-width="2" fill="none"></path></g><g transform="translate(584.8558817321452 1281.7728062061615) rotate(0 33.53125 12.5)"><text x="33.53125" y="0" font-family="Virgil, Segoe UI Emoji" font-size="20px" fill="#1e1e1e" text-anchor="middle" style="white-space: pre;" direction="ltr" dominant-baseline="text-before-edge">Offset</text></g><g transform="translate(721.8004042842147 1172.6014743223654) rotate(0 15.385416984558105 22.5)"><text x="15.385416984558105" y="0" font-family="Virgil, Segoe UI Emoji" font-size="36px" fill="#f08c00" text-anchor="middle" style="white-space: pre;" direction="ltr" dominant-baseline="text-before-edge">⋯</text></g><g transform="translate(452.082897778198 1398.8784836833588) rotate(0 5.583333492279053 22.5)"><text x="5.583333492279053" y="0" font-family="Virgil, Segoe UI Emoji" font-size="36px" fill="#1971c2" text-anchor="middle" style="white-space: pre;" direction="ltr" dominant-baseline="text-before-edge">⋮</text></g><g stroke-linecap="round" transform="translate(131.71251849539703 1066.019768974516) rotate(0 83.5 125.5)"><path d="M32 0 C69.18 0.35, 103.63 -2.62, 135 0 M32 0 C65.47 -0.13, 99.35 -0.38, 135 0 M135 0 C154.96 0.81, 165.44 10.21, 167 32 M135 0 C157.75 1.5, 168.16 10.41, 167 32 M167 32 C166.12 70.66, 165.63 111.45, 167 219 M167 32 C167.61 100.81, 168.66 170.24, 167 219 M167 219 C166.78 241.85, 157.57 249.86, 135 251 M167 219 C168.87 242.17, 158.16 249.52, 135 251 M135 251 C107.23 252.4, 79.25 249.38, 32 251 M135 251 C95.14 250.96, 53.3 252.69, 32 251 M32 251 C11.4 251.26, 0.69 241.72, 0 219 M32 251 C11.33 251.61, -2.24 242.18, 0 219 M0 219 C-2.24 167.18, -1.84 115.08, 0 32 M0 219 C1.72 173.81, 1.77 127.9, 0 32 M0 32 C0.5 11.11, 8.67 -1.23, 32 0 M0 32 C-0.47 12.85, 8.76 0.29, 32 0" stroke="#2f9e44" stroke-width="2" fill="none"></path></g><g transform="translate(174.83751849539703 1071.019768974516) rotate(0 40.375 25)"><text x="40.375" y="0" font-family="Virgil, Segoe UI Emoji" font-size="20px" fill="#2f9e44" text-anchor="middle" style="white-space: pre;" direction="ltr" dominant-baseline="text-before-edge">Axis</text><text x="40.375" y="25" font-family="Virgil, Segoe UI Emoji" font-size="20px" fill="#2f9e44" text-anchor="middle" style="white-space: pre;" direction="ltr" dominant-baseline="text-before-edge">(y_axis)</text></g><g stroke-linecap="round" transform="translate(150.71251849539703 1152.019768974516) rotate(0 66 19.5)"><path d="M9.75 0 C51.57 2.08, 91.33 0.94, 122.25 0 M9.75 0 C35.05 1.46, 60.93 0.83, 122.25 0 M122.25 0 C129.98 1.3, 133.01 3.03, 132 9.75 M122.25 0 C126.7 0.04, 133.3 2.21, 132 9.75 M132 9.75 C133.27 16.19, 132.18 18.74, 132 29.25 M132 9.75 C131.97 14.85, 132.68 17.92, 132 29.25 M132 29.25 C133.63 37.35, 130.34 37.71, 122.25 39 M132 29.25 C131.26 37.39, 128.87 38.77, 122.25 39 M122.25 39 C82.75 39.4, 41.12 39.2, 9.75 39 M122.25 39 C98.42 40.12, 74.21 40.68, 9.75 39 M9.75 39 C3.83 39.53, -1.95 37.36, 0 29.25 M9.75 39 C2.68 40.85, 1.59 34.9, 0 29.25 M0 29.25 C-1.07 22.17, 0.58 18.65, 0 9.75 M0 29.25 C0.2 23, -1.02 15.72, 0 9.75 M0 9.75 C-0.4 5.15, 1.59 0.25, 9.75 0 M0 9.75 C-0.96 3.54, 3.44 1.05, 9.75 0" stroke="#1e1e1e" stroke-width="2" fill="none"></path></g><g transform="translate(190.87918452628082 1159.019768974516) rotate(0 25.83333396911621 12.5)"><text x="25.83333396911621" y="0" font-family="Virgil, Segoe UI Emoji" font-size="20px" fill="#1e1e1e" text-anchor="middle" style="white-space: pre;" direction="ltr" dominant-baseline="text-before-edge">Label</text></g><g stroke-linecap="round" transform="translate(149.71251849539703 1230.519768974516) rotate(0 66 19.5)"><path d="M9.75 0 C48.67 0.88, 88.48 -1.39, 122.25 0 M9.75 0 C48.66 0.91, 86.85 0.15, 122.25 0 M122.25 0 C126.96 0.03, 133.13 2.34, 132 9.75 M122.25 0 C127.89 -1.6, 132.75 4.91, 132 9.75 M132 9.75 C130.54 17.7, 130.26 23.86, 132 29.25 M132 9.75 C132.91 17.86, 132.9 23.78, 132 29.25 M132 29.25 C131.35 37.17, 128.85 38.8, 122.25 39 M132 29.25 C133.55 35.05, 126.83 41.13, 122.25 39 M122.25 39 C79.27 37.98, 41.44 40.37, 9.75 39 M122.25 39 C87.32 40.04, 50.84 40.58, 9.75 39 M9.75 39 C2.75 40.61, 1.38 35.01, 0 29.25 M9.75 39 C2.81 38.61, -1.2 34.45, 0 29.25 M0 29.25 C0.56 25.46, -0.2 21.25, 0 9.75 M0 29.25 C0 23.89, -0.61 16.81, 0 9.75 M0 9.75 C-0.84 3.5, 3.41 0.91, 9.75 0 M0 9.75 C-2.25 1.5, 4.92 -1.1, 9.75 0" stroke="#1e1e1e" stroke-width="2" fill="none"></path></g><g transform="translate(183.4521005571646 1237.519768974516) rotate(0 32.26041793823242 12.5)"><text x="32.26041793823242" y="0" font-family="Virgil, Segoe UI Emoji" font-size="20px" fill="#1e1e1e" text-anchor="middle" style="white-space: pre;" direction="ltr" dominant-baseline="text-before-edge">Scaling</text></g></svg>